<svg width="136" height="86" viewBox="0 0 136 86" fill="none" xmlns="http://www.w3.org/2000/svg">
<mask id="path-1-inside-1_0_2781" fill="white">
<path d="M100.223 3.88186C100.535 3.97393 100.839 4.09255 101.151 4.18468L102.605 4.70007C103.484 5.04593 104.356 5.41828 105.187 5.8651C106.134 6.34585 107.074 6.91066 107.894 7.69915C108.622 8.37445 109.328 9.12866 110.016 9.87875C109.652 9.54071 109.304 9.20833 108.94 8.87068C108.559 8.52817 108.195 8.19053 107.806 7.87457C107.418 7.55862 107.029 7.24267 106.601 7.00112C106.238 6.77903 105.868 6.58343 105.497 6.38783L105.53 6.39756C104.394 5.83212 103.211 5.36764 102.004 4.98243C101.437 4.78668 100.863 4.61702 100.288 4.44742L99.7136 4.27776C98.7953 4.06394 97.901 3.82877 96.9828 3.61495C96.1464 3.42574 95.3013 3.20511 94.465 3.01549C94.1205 2.91375 93.7437 2.8598 93.3834 2.81118C91.5404 2.52553 89.7052 2.21379 87.8699 1.90198C87.5832 1.8462 87.2886 1.81651 86.9938 1.78723L84.2927 1.50719C82.7701 1.34503 81.2641 1.18778 79.7415 1.02562C78.3105 0.977121 76.8716 0.954714 75.4326 0.932309C74.4762 0.908442 73.4951 0.906615 72.5387 0.882747L71.6312 0.873761L71.3614 0.880301C68.4471 1.14099 65.5243 1.37032 62.6099 1.63142C62.5365 1.63818 62.4465 1.64047 62.3488 1.66938C65.9514 1.31988 69.4977 1.24477 72.9795 1.44422C74.1004 1.51621 75.2296 1.61996 76.3427 1.7185C76.8093 1.7701 77.2837 1.79514 77.7426 1.87289C78.3897 1.97776 79.029 2.10923 79.6761 2.2141L85.5264 3.25119L86.2886 3.39004C86.3619 3.38283 86.4114 3.39742 86.4769 3.41676C87.0592 3.56026 87.6336 3.72986 88.2082 3.89952C90.1364 4.43996 92.0404 5.00215 93.9523 5.53778L95.0028 5.84797C95.5288 6.06101 96.0465 6.24229 96.556 6.45047C98.4132 7.17119 100.262 7.86089 102.119 8.58161C102.382 8.6592 102.653 8.7681 102.907 8.87219L103.993 9.36517C105.91 10.2473 107.811 11.1822 109.673 12.2495C113.373 14.4058 116.922 16.949 120.145 20.0567C121.736 21.5501 123.279 23.1562 124.772 24.8731C126.251 26.5748 127.69 28.3504 129.008 30.2926C129.684 31.2727 130.341 32.2911 130.979 33.347C131.556 34.2935 132.117 35.293 132.622 36.3625C133.16 37.4593 133.654 38.6316 134.101 39.8754C134.518 41.0043 134.902 42.1816 135.172 43.4405C135.469 44.7927 135.709 46.215 135.828 47.6878C135.87 48.3902 135.913 49.0926 135.914 49.8119C135.924 50.5049 135.909 51.219 135.845 51.9192C135.759 52.7563 135.648 53.6147 135.488 54.4586C135.351 55.166 135.189 55.8944 134.995 56.613C134.598 58.0773 134.094 59.4811 133.451 60.8146C133.07 61.6124 132.665 62.3774 132.24 63.1024C131.881 63.715 131.505 64.3228 131.112 64.8682C130.326 65.9585 129.474 66.972 128.604 67.9226C127.63 68.9862 126.637 69.9294 125.595 70.8006C124.62 71.6139 123.643 72.3614 122.667 73.0411C120.571 74.521 118.43 75.7866 116.295 76.8523C114.12 77.9352 111.95 78.8181 109.77 79.612C107.55 80.4228 105.312 81.1133 103.08 81.7195C102.014 82.0083 100.923 82.3187 99.8631 82.5233C97.874 82.9137 95.9016 83.3086 93.9125 83.699C93.0403 83.8728 92.1925 84.0249 91.3203 84.1987C91.0755 84.2415 90.8309 84.2843 90.5701 84.3219C87.2485 84.6925 83.9026 85.0847 80.5812 85.4553C80.5077 85.4625 80.4177 85.4648 80.3444 85.4716L79.5846 85.5062L76.8155 85.6374C74.8141 85.7075 72.8211 85.8093 70.8118 85.9059C70.5256 85.9076 70.2318 85.9359 69.9458 85.9376C69.4064 85.9512 68.8586 85.9329 68.3271 85.9199C66.239 85.8807 64.1515 85.8393 62.0645 85.7956C61.2876 85.7675 60.5193 85.7707 59.7424 85.7425C59.4641 85.7181 59.1781 85.7199 58.8999 85.695C57.2546 85.5255 55.6008 85.3246 53.9556 85.1551C52.2283 84.9614 50.4768 84.7894 48.7495 84.5957C48.5445 84.564 48.3399 84.532 48.1187 84.4956C47.4137 84.3452 46.6845 84.216 45.9794 84.0652C43.9792 83.6474 41.9548 83.2509 39.9548 82.8327C39.4305 82.7352 38.8973 82.6066 38.3729 82.5096L37.5192 82.2575C35.6239 81.7263 33.7526 81.1738 31.8572 80.643C31.0692 80.4104 30.2901 80.2092 29.5021 79.9766C28.5752 79.7313 27.6552 79.4023 26.7515 79.0782C24.6981 78.3569 22.6606 77.5825 20.6696 76.6499C18.753 75.7678 16.8356 74.8276 14.9892 73.7076C14.0368 73.136 13.099 72.5235 12.1766 71.8706C11.3404 71.2856 10.5196 70.6599 9.71481 69.9941C8.85493 69.28 8.02708 68.5181 7.24694 67.6552C6.55814 66.9055 5.87705 66.1296 5.25243 65.2837C4.56905 64.3343 3.90986 63.3637 3.3227 62.2704C2.78639 61.3067 2.29828 60.3003 1.87448 59.1975C1.40819 57.996 1.01473 56.7297 0.742394 55.3558C0.4966 54.1332 0.307154 52.841 0.22309 51.4938C0.145359 50.0045 0.148818 48.4814 0.290669 46.9135C0.417677 45.4558 0.642226 43.9696 0.973254 42.486C1.68984 39.334 2.81512 36.1872 4.26333 33.3374C5.63197 30.6365 7.257 28.1548 9.0335 26.0057C10.8102 23.8566 12.7049 21.972 14.6513 20.2759C16.5977 18.5789 18.6201 17.0483 20.6368 15.7176C22.7427 14.3272 24.884 13.1191 27.018 11.9954C29.217 10.8336 31.4011 9.78211 33.5783 8.81471C34.2044 8.56823 34.8217 8.29074 35.4313 8.0394C35.5366 7.98433 35.6345 7.95548 35.7563 7.90528C35.9848 7.81263 36.2125 7.72659 36.4393 7.64718C38.5048 6.87689 40.5625 6.13316 42.628 5.36287L44.433 4.68846C44.5386 4.63345 44.6527 4.60941 44.7667 4.58576C45.0521 4.52611 45.3288 4.43544 45.614 4.37573C47.6827 3.83648 49.7754 3.27588 51.8605 2.7415C52.4224 2.59112 52.9599 2.46243 53.5221 2.3117C53.6361 2.28806 53.7259 2.28571 53.8401 2.26212C54.1418 2.20728 54.4599 2.1577 54.7615 2.10285C56.8489 1.74148 58.953 1.38503 61.0403 1.02406L62.6791 0.731905C62.7932 0.707861 62.8994 0.710775 63.0057 0.713287L63.9366 0.643006C65.978 0.498145 68.0436 0.331993 70.1014 0.191994C70.4445 0.178238 70.7956 0.13798 71.1385 0.124627C71.2284 0.122275 71.3427 0.0982868 71.4488 0.1012C71.9725 0.140773 72.4876 0.148926 73.019 0.162345C75.0388 0.211898 77.034 0.283949 79.0372 0.329041C79.3724 0.341842 79.699 0.323222 80.0102 0.35737C80.6979 0.445811 81.3771 0.502429 82.065 0.590468C83.8908 0.813275 85.7079 1.00466 87.5337 1.22747C87.8613 1.26688 88.1645 1.32753 88.4842 1.3935C89.4509 1.56388 90.4013 1.72945 91.3683 1.89948C92.2531 2.04612 93.1466 2.22331 94.0312 2.36988C94.1704 2.38212 94.3258 2.39957 94.457 2.43831C94.6376 2.49164 94.8424 2.52322 95.023 2.57655C96.6636 3.00322 98.2957 3.39894 99.9363 3.82602C100.051 3.85995 100.15 3.88902 100.223 3.88186ZM72.3425 3.84364C72.3995 3.83162 72.4652 3.85102 72.5386 3.84426C64.0155 3.39773 55.1872 4.52865 46.269 7.41561C46.2693 7.41439 46.2697 7.41318 46.2701 7.41199C46.265 7.41443 46.2608 7.4132 46.2525 7.41074C46.1956 7.42236 46.1307 7.46094 46.0736 7.47297C46.1307 7.46094 46.1713 7.44406 46.2283 7.43203C42.8602 8.56531 39.4778 9.86673 36.1169 11.5192C32.78 13.1503 29.4634 15.0753 26.1934 17.3871C24.1374 18.8501 22.0841 20.4862 20.115 22.32C19.0821 23.2801 18.0664 24.3026 17.0593 25.3565C16.181 26.2761 15.2786 27.2171 14.4097 28.2256C13.8948 28.8212 13.3723 29.4429 12.8823 30.0747C12.6175 30.4279 12.345 30.8071 12.08 31.1602C11.9353 31.3476 11.7908 31.5351 11.6628 31.7269C11.2862 32.2772 10.9338 32.8056 10.5651 33.3293C9.9402 34.2371 9.32298 35.1188 8.73942 36.0676C9.14315 35.1234 9.57975 34.1884 10.0328 33.2583C10.2235 32.8544 10.4303 32.4558 10.621 32.0519C10.8834 31.5257 11.1458 30.9995 11.4247 30.4781C12.063 29.3437 12.702 28.2678 13.4153 27.2421C14.1208 26.2426 14.835 25.2746 15.599 24.379C16.403 23.409 17.2319 22.4748 18.0867 21.6349C18.8688 20.8597 19.6595 20.1155 20.4754 19.4075C22.5188 17.6246 24.6136 16.0292 26.7351 14.5856C28.9302 13.104 31.1205 11.7749 33.3007 10.6015C34.9066 9.7391 36.5067 8.95555 38.0989 8.25179C37.5781 8.44361 37.05 8.66083 36.5295 8.85231C36.3263 8.93622 36.1309 8.99358 35.9278 9.07709C35.627 9.18951 35.3182 9.32843 35.0096 9.46741C33.3473 10.1856 31.6794 10.9583 30.0068 11.7851C28.281 12.644 26.5496 13.5707 24.814 14.5647C23.1838 15.492 21.5874 16.4869 19.9926 17.5974C16.7147 19.9358 13.4913 22.6932 10.5059 26.0953C8.95362 27.9082 7.51836 29.9284 6.22475 32.134C5.74636 32.9787 5.28882 33.8619 4.85539 34.7774C4.43518 35.7167 4.03152 36.6614 3.65258 37.6423C3.3058 38.5749 2.98423 39.5434 2.71949 40.5007C2.46192 41.373 2.26118 42.2341 2.06912 43.1258C1.90917 43.9701 1.76561 44.8188 1.679 45.6559C1.57706 46.5323 1.50711 47.3952 1.46962 48.2389C1.45734 49.1267 1.46146 50.019 1.53055 50.8732C1.60025 51.7853 1.69437 52.6753 1.83669 53.5227C2.00424 54.4059 2.19609 55.2675 2.43627 56.086C2.70823 56.9602 3.01155 57.7884 3.34518 58.5679C3.93165 59.8699 4.57862 61.0689 5.28282 62.1588C5.98905 63.2316 6.74181 64.2119 7.53843 65.096C8.3515 65.9687 9.1723 66.8151 10.0409 67.5602C10.8931 68.3005 11.8014 68.9711 12.7012 69.6108C13.6915 70.3056 14.6898 70.974 15.728 71.5679C16.6839 72.138 17.6556 72.6546 18.6513 73.1502C20.5525 74.0851 22.4934 74.9456 24.4652 75.7006C25.451 76.049 26.4289 76.4239 27.4222 76.7461C27.9068 76.918 28.4157 77.0683 28.9004 77.2398C29.1552 77.3439 29.4015 77.4166 29.6641 77.4942L33.8896 78.6556L38.7879 80.0157C39.0177 80.0836 39.2389 80.12 39.4602 80.1565C40.165 80.3073 40.8943 80.4364 41.5995 80.5869L47.6232 81.7618C48.1147 81.8496 48.615 81.9684 49.1231 82.0607C49.1888 82.0801 49.2622 82.0734 49.3279 82.0928C49.557 82.1026 49.7782 82.1391 50.0071 82.1494C53.232 82.469 56.449 82.8152 59.6738 83.1348C62.3303 83.1431 64.9875 83.2085 67.6362 83.2434C68.3803 83.2619 69.1486 83.2586 69.8926 83.2771C70.1054 83.2822 70.3343 83.2925 70.5546 83.2713C72.3436 83.1954 74.124 83.089 75.9131 83.0131C77.5386 82.9471 79.1557 82.8494 80.7814 82.783C81.0509 82.7764 81.3525 82.7219 81.63 82.6888C82.5194 82.5774 83.4174 82.4979 84.3068 82.3864C86.3224 82.1478 88.3138 81.9309 90.3293 81.6922C90.631 81.6374 90.917 81.6356 91.2023 81.5764L93.1342 81.198L99.4433 79.9558C99.9568 79.8484 100.463 79.7676 100.984 79.6341C103.159 79.0974 105.333 78.5031 107.522 77.7982C108.824 77.3777 110.125 76.8992 111.434 76.3946C112.645 75.9185 113.864 75.4157 115.091 74.829C117.535 73.6819 119.976 72.3043 122.364 70.6231C123.481 69.8027 124.581 68.9775 125.671 68.0054C126.228 67.5088 126.769 67.0071 127.309 66.4478C127.713 66.0285 128.116 65.5914 128.516 65.1369C129.04 64.5531 129.553 63.9066 130.051 63.2036C130.476 62.6104 130.859 61.976 131.243 61.3417C131.597 60.7385 131.93 60.0956 132.238 59.4216C132.476 58.9171 132.682 58.403 132.887 57.8884C133.092 57.3163 133.272 56.7659 133.42 56.2057C133.575 55.619 133.723 55.059 133.837 54.4887C133.945 53.9453 134.033 53.4047 134.101 52.8706C134.168 52.2801 134.215 51.6985 134.241 51.1291C134.253 50.2413 134.241 49.3751 134.164 48.5475C134.103 47.6672 133.985 46.7985 133.859 45.9564C133.398 43.4053 132.59 41.1252 131.67 38.9846C131.113 37.7279 130.492 36.5668 129.839 35.4541C129.153 34.3317 128.451 33.2044 127.726 32.1564C126.266 30.0289 124.702 28.0725 123.083 26.2431C120.534 23.3917 117.826 20.8384 114.943 18.6359C113.473 17.5115 111.955 16.4884 110.421 15.5181C108.863 14.5694 107.282 13.7001 105.685 12.8834L105.688 12.8845C105.053 12.5874 104.411 12.2679 103.776 11.9747C103.48 11.8299 103.159 11.7064 102.847 11.5568C102.69 11.4817 102.542 11.3802 102.378 11.3317C102.115 11.2542 101.86 11.1505 101.605 11.0464C100.373 10.5674 99.1487 10.1198 97.916 9.64077C96.8069 9.2271 95.7219 8.7917 94.6292 8.3829C94.2017 8.19892 93.7506 8.09462 93.2911 7.95895C91.3628 7.41845 89.4587 6.85626 87.547 6.32023C86.9645 6.17713 86.3901 6.00753 85.8155 5.83787C85.7335 5.81367 85.66 5.82083 85.5943 5.80143C85.3568 5.76018 85.1028 5.71361 84.8651 5.6723L79.0149 4.63481C78.3677 4.53035 77.7282 4.39927 77.0813 4.294L76.9663 4.26007C76.4505 4.19394 75.951 4.13307 75.4275 4.0931C74.4042 3.9922 73.3571 3.91312 72.3425 3.84364ZM105.751 12.9133C105.783 12.9317 105.819 12.9519 105.858 12.9633L105.75 12.9133L105.751 12.9133ZM46.2928 7.3942C46.2928 7.3942 46.278 7.38984 46.2697 7.41233C46.2774 7.4081 46.2852 7.402 46.2928 7.3942ZM105.688 12.8847L105.75 12.9136C105.73 12.9021 105.709 12.8925 105.688 12.8848L105.688 12.8847ZM122.984 26.1569C122.973 26.1464 122.963 26.1364 122.958 26.1206L122.984 26.1569ZM123.009 26.1927L122.984 26.1569C122.994 26.1646 123.002 26.1768 123.009 26.1927ZM14.3134 28.3406C14.3264 28.3236 14.3399 28.3084 14.3535 28.2952L14.3134 28.3406ZM14.2731 28.3865L14.3134 28.3406C14.2991 28.3583 14.2851 28.3756 14.2731 28.3865ZM6.18397 32.1508C6.17191 32.1617 6.1618 32.1806 6.15182 32.1991L6.18397 32.1508ZM6.15182 32.1991L6.11997 32.247C6.1316 32.235 6.14253 32.2186 6.1517 32.1995L6.15182 32.1991ZM3.27706 58.3754C3.28569 58.4068 3.30197 58.4116 3.29413 58.4382L3.27706 58.3754ZM46.2042 7.45378C46.2283 7.43203 46.2283 7.43203 46.2448 7.4369L46.2042 7.45378Z"/>
</mask>
<path d="M100.223 3.88186C100.535 3.97393 100.839 4.09255 101.151 4.18468L102.605 4.70007C103.484 5.04593 104.356 5.41828 105.187 5.8651C106.134 6.34585 107.074 6.91066 107.894 7.69915C108.622 8.37445 109.328 9.12866 110.016 9.87875C109.652 9.54071 109.304 9.20833 108.94 8.87068C108.559 8.52817 108.195 8.19053 107.806 7.87457C107.418 7.55862 107.029 7.24267 106.601 7.00112C106.238 6.77903 105.868 6.58343 105.497 6.38783L105.53 6.39756C104.394 5.83212 103.211 5.36764 102.004 4.98243C101.437 4.78668 100.863 4.61702 100.288 4.44742L99.7136 4.27776C98.7953 4.06394 97.901 3.82877 96.9828 3.61495C96.1464 3.42574 95.3013 3.20511 94.465 3.01549C94.1205 2.91375 93.7437 2.8598 93.3834 2.81118C91.5404 2.52553 89.7052 2.21379 87.8699 1.90198C87.5832 1.8462 87.2886 1.81651 86.9938 1.78723L84.2927 1.50719C82.7701 1.34503 81.2641 1.18778 79.7415 1.02562C78.3105 0.977121 76.8716 0.954714 75.4326 0.932309C74.4762 0.908442 73.4951 0.906615 72.5387 0.882747L71.6312 0.873761L71.3614 0.880301C68.4471 1.14099 65.5243 1.37032 62.6099 1.63142C62.5365 1.63818 62.4465 1.64047 62.3488 1.66938C65.9514 1.31988 69.4977 1.24477 72.9795 1.44422C74.1004 1.51621 75.2296 1.61996 76.3427 1.7185C76.8093 1.7701 77.2837 1.79514 77.7426 1.87289C78.3897 1.97776 79.029 2.10923 79.6761 2.2141L85.5264 3.25119L86.2886 3.39004C86.3619 3.38283 86.4114 3.39742 86.4769 3.41676C87.0592 3.56026 87.6336 3.72986 88.2082 3.89952C90.1364 4.43996 92.0404 5.00215 93.9523 5.53778L95.0028 5.84797C95.5288 6.06101 96.0465 6.24229 96.556 6.45047C98.4132 7.17119 100.262 7.86089 102.119 8.58161C102.382 8.6592 102.653 8.7681 102.907 8.87219L103.993 9.36517C105.91 10.2473 107.811 11.1822 109.673 12.2495C113.373 14.4058 116.922 16.949 120.145 20.0567C121.736 21.5501 123.279 23.1562 124.772 24.8731C126.251 26.5748 127.69 28.3504 129.008 30.2926C129.684 31.2727 130.341 32.2911 130.979 33.347C131.556 34.2935 132.117 35.293 132.622 36.3625C133.16 37.4593 133.654 38.6316 134.101 39.8754C134.518 41.0043 134.902 42.1816 135.172 43.4405C135.469 44.7927 135.709 46.215 135.828 47.6878C135.87 48.3902 135.913 49.0926 135.914 49.8119C135.924 50.5049 135.909 51.219 135.845 51.9192C135.759 52.7563 135.648 53.6147 135.488 54.4586C135.351 55.166 135.189 55.8944 134.995 56.613C134.598 58.0773 134.094 59.4811 133.451 60.8146C133.07 61.6124 132.665 62.3774 132.24 63.1024C131.881 63.715 131.505 64.3228 131.112 64.8682C130.326 65.9585 129.474 66.972 128.604 67.9226C127.63 68.9862 126.637 69.9294 125.595 70.8006C124.62 71.6139 123.643 72.3614 122.667 73.0411C120.571 74.521 118.43 75.7866 116.295 76.8523C114.12 77.9352 111.95 78.8181 109.77 79.612C107.55 80.4228 105.312 81.1133 103.08 81.7195C102.014 82.0083 100.923 82.3187 99.8631 82.5233C97.874 82.9137 95.9016 83.3086 93.9125 83.699C93.0403 83.8728 92.1925 84.0249 91.3203 84.1987C91.0755 84.2415 90.8309 84.2843 90.5701 84.3219C87.2485 84.6925 83.9026 85.0847 80.5812 85.4553C80.5077 85.4625 80.4177 85.4648 80.3444 85.4716L79.5846 85.5062L76.8155 85.6374C74.8141 85.7075 72.8211 85.8093 70.8118 85.9059C70.5256 85.9076 70.2318 85.9359 69.9458 85.9376C69.4064 85.9512 68.8586 85.9329 68.3271 85.9199C66.239 85.8807 64.1515 85.8393 62.0645 85.7956C61.2876 85.7675 60.5193 85.7707 59.7424 85.7425C59.4641 85.7181 59.1781 85.7199 58.8999 85.695C57.2546 85.5255 55.6008 85.3246 53.9556 85.1551C52.2283 84.9614 50.4768 84.7894 48.7495 84.5957C48.5445 84.564 48.3399 84.532 48.1187 84.4956C47.4137 84.3452 46.6845 84.216 45.9794 84.0652C43.9792 83.6474 41.9548 83.2509 39.9548 82.8327C39.4305 82.7352 38.8973 82.6066 38.3729 82.5096L37.5192 82.2575C35.6239 81.7263 33.7526 81.1738 31.8572 80.643C31.0692 80.4104 30.2901 80.2092 29.5021 79.9766C28.5752 79.7313 27.6552 79.4023 26.7515 79.0782C24.6981 78.3569 22.6606 77.5825 20.6696 76.6499C18.753 75.7678 16.8356 74.8276 14.9892 73.7076C14.0368 73.136 13.099 72.5235 12.1766 71.8706C11.3404 71.2856 10.5196 70.6599 9.71481 69.9941C8.85493 69.28 8.02708 68.5181 7.24694 67.6552C6.55814 66.9055 5.87705 66.1296 5.25243 65.2837C4.56905 64.3343 3.90986 63.3637 3.3227 62.2704C2.78639 61.3067 2.29828 60.3003 1.87448 59.1975C1.40819 57.996 1.01473 56.7297 0.742394 55.3558C0.4966 54.1332 0.307154 52.841 0.22309 51.4938C0.145359 50.0045 0.148818 48.4814 0.290669 46.9135C0.417677 45.4558 0.642226 43.9696 0.973254 42.486C1.68984 39.334 2.81512 36.1872 4.26333 33.3374C5.63197 30.6365 7.257 28.1548 9.0335 26.0057C10.8102 23.8566 12.7049 21.972 14.6513 20.2759C16.5977 18.5789 18.6201 17.0483 20.6368 15.7176C22.7427 14.3272 24.884 13.1191 27.018 11.9954C29.217 10.8336 31.4011 9.78211 33.5783 8.81471C34.2044 8.56823 34.8217 8.29074 35.4313 8.0394C35.5366 7.98433 35.6345 7.95548 35.7563 7.90528C35.9848 7.81263 36.2125 7.72659 36.4393 7.64718C38.5048 6.87689 40.5625 6.13316 42.628 5.36287L44.433 4.68846C44.5386 4.63345 44.6527 4.60941 44.7667 4.58576C45.0521 4.52611 45.3288 4.43544 45.614 4.37573C47.6827 3.83648 49.7754 3.27588 51.8605 2.7415C52.4224 2.59112 52.9599 2.46243 53.5221 2.3117C53.6361 2.28806 53.7259 2.28571 53.8401 2.26212C54.1418 2.20728 54.4599 2.1577 54.7615 2.10285C56.8489 1.74148 58.953 1.38503 61.0403 1.02406L62.6791 0.731905C62.7932 0.707861 62.8994 0.710775 63.0057 0.713287L63.9366 0.643006C65.978 0.498145 68.0436 0.331993 70.1014 0.191994C70.4445 0.178238 70.7956 0.13798 71.1385 0.124627C71.2284 0.122275 71.3427 0.0982868 71.4488 0.1012C71.9725 0.140773 72.4876 0.148926 73.019 0.162345C75.0388 0.211898 77.034 0.283949 79.0372 0.329041C79.3724 0.341842 79.699 0.323222 80.0102 0.35737C80.6979 0.445811 81.3771 0.502429 82.065 0.590468C83.8908 0.813275 85.7079 1.00466 87.5337 1.22747C87.8613 1.26688 88.1645 1.32753 88.4842 1.3935C89.4509 1.56388 90.4013 1.72945 91.3683 1.89948C92.2531 2.04612 93.1466 2.22331 94.0312 2.36988C94.1704 2.38212 94.3258 2.39957 94.457 2.43831C94.6376 2.49164 94.8424 2.52322 95.023 2.57655C96.6636 3.00322 98.2957 3.39894 99.9363 3.82602C100.051 3.85995 100.15 3.88902 100.223 3.88186ZM72.3425 3.84364C72.3995 3.83162 72.4652 3.85102 72.5386 3.84426C64.0155 3.39773 55.1872 4.52865 46.269 7.41561C46.2693 7.41439 46.2697 7.41318 46.2701 7.41199C46.265 7.41443 46.2608 7.4132 46.2525 7.41074C46.1956 7.42236 46.1307 7.46094 46.0736 7.47297C46.1307 7.46094 46.1713 7.44406 46.2283 7.43203C42.8602 8.56531 39.4778 9.86673 36.1169 11.5192C32.78 13.1503 29.4634 15.0753 26.1934 17.3871C24.1374 18.8501 22.0841 20.4862 20.115 22.32C19.0821 23.2801 18.0664 24.3026 17.0593 25.3565C16.181 26.2761 15.2786 27.2171 14.4097 28.2256C13.8948 28.8212 13.3723 29.4429 12.8823 30.0747C12.6175 30.4279 12.345 30.8071 12.08 31.1602C11.9353 31.3476 11.7908 31.5351 11.6628 31.7269C11.2862 32.2772 10.9338 32.8056 10.5651 33.3293C9.9402 34.2371 9.32298 35.1188 8.73942 36.0676C9.14315 35.1234 9.57975 34.1884 10.0328 33.2583C10.2235 32.8544 10.4303 32.4558 10.621 32.0519C10.8834 31.5257 11.1458 30.9995 11.4247 30.4781C12.063 29.3437 12.702 28.2678 13.4153 27.2421C14.1208 26.2426 14.835 25.2746 15.599 24.379C16.403 23.409 17.2319 22.4748 18.0867 21.6349C18.8688 20.8597 19.6595 20.1155 20.4754 19.4075C22.5188 17.6246 24.6136 16.0292 26.7351 14.5856C28.9302 13.104 31.1205 11.7749 33.3007 10.6015C34.9066 9.7391 36.5067 8.95555 38.0989 8.25179C37.5781 8.44361 37.05 8.66083 36.5295 8.85231C36.3263 8.93622 36.1309 8.99358 35.9278 9.07709C35.627 9.18951 35.3182 9.32843 35.0096 9.46741C33.3473 10.1856 31.6794 10.9583 30.0068 11.7851C28.281 12.644 26.5496 13.5707 24.814 14.5647C23.1838 15.492 21.5874 16.4869 19.9926 17.5974C16.7147 19.9358 13.4913 22.6932 10.5059 26.0953C8.95362 27.9082 7.51836 29.9284 6.22475 32.134C5.74636 32.9787 5.28882 33.8619 4.85539 34.7774C4.43518 35.7167 4.03152 36.6614 3.65258 37.6423C3.3058 38.5749 2.98423 39.5434 2.71949 40.5007C2.46192 41.373 2.26118 42.2341 2.06912 43.1258C1.90917 43.9701 1.76561 44.8188 1.679 45.6559C1.57706 46.5323 1.50711 47.3952 1.46962 48.2389C1.45734 49.1267 1.46146 50.019 1.53055 50.8732C1.60025 51.7853 1.69437 52.6753 1.83669 53.5227C2.00424 54.4059 2.19609 55.2675 2.43627 56.086C2.70823 56.9602 3.01155 57.7884 3.34518 58.5679C3.93165 59.8699 4.57862 61.0689 5.28282 62.1588C5.98905 63.2316 6.74181 64.2119 7.53843 65.096C8.3515 65.9687 9.1723 66.8151 10.0409 67.5602C10.8931 68.3005 11.8014 68.9711 12.7012 69.6108C13.6915 70.3056 14.6898 70.974 15.728 71.5679C16.6839 72.138 17.6556 72.6546 18.6513 73.1502C20.5525 74.0851 22.4934 74.9456 24.4652 75.7006C25.451 76.049 26.4289 76.4239 27.4222 76.7461C27.9068 76.918 28.4157 77.0683 28.9004 77.2398C29.1552 77.3439 29.4015 77.4166 29.6641 77.4942L33.8896 78.6556L38.7879 80.0157C39.0177 80.0836 39.2389 80.12 39.4602 80.1565C40.165 80.3073 40.8943 80.4364 41.5995 80.5869L47.6232 81.7618C48.1147 81.8496 48.615 81.9684 49.1231 82.0607C49.1888 82.0801 49.2622 82.0734 49.3279 82.0928C49.557 82.1026 49.7782 82.1391 50.0071 82.1494C53.232 82.469 56.449 82.8152 59.6738 83.1348C62.3303 83.1431 64.9875 83.2085 67.6362 83.2434C68.3803 83.2619 69.1486 83.2586 69.8926 83.2771C70.1054 83.2822 70.3343 83.2925 70.5546 83.2713C72.3436 83.1954 74.124 83.089 75.9131 83.0131C77.5386 82.9471 79.1557 82.8494 80.7814 82.783C81.0509 82.7764 81.3525 82.7219 81.63 82.6888C82.5194 82.5774 83.4174 82.4979 84.3068 82.3864C86.3224 82.1478 88.3138 81.9309 90.3293 81.6922C90.631 81.6374 90.917 81.6356 91.2023 81.5764L93.1342 81.198L99.4433 79.9558C99.9568 79.8484 100.463 79.7676 100.984 79.6341C103.159 79.0974 105.333 78.5031 107.522 77.7982C108.824 77.3777 110.125 76.8992 111.434 76.3946C112.645 75.9185 113.864 75.4157 115.091 74.829C117.535 73.6819 119.976 72.3043 122.364 70.6231C123.481 69.8027 124.581 68.9775 125.671 68.0054C126.228 67.5088 126.769 67.0071 127.309 66.4478C127.713 66.0285 128.116 65.5914 128.516 65.1369C129.04 64.5531 129.553 63.9066 130.051 63.2036C130.476 62.6104 130.859 61.976 131.243 61.3417C131.597 60.7385 131.93 60.0956 132.238 59.4216C132.476 58.9171 132.682 58.403 132.887 57.8884C133.092 57.3163 133.272 56.7659 133.42 56.2057C133.575 55.619 133.723 55.059 133.837 54.4887C133.945 53.9453 134.033 53.4047 134.101 52.8706C134.168 52.2801 134.215 51.6985 134.241 51.1291C134.253 50.2413 134.241 49.3751 134.164 48.5475C134.103 47.6672 133.985 46.7985 133.859 45.9564C133.398 43.4053 132.59 41.1252 131.67 38.9846C131.113 37.7279 130.492 36.5668 129.839 35.4541C129.153 34.3317 128.451 33.2044 127.726 32.1564C126.266 30.0289 124.702 28.0725 123.083 26.2431C120.534 23.3917 117.826 20.8384 114.943 18.6359C113.473 17.5115 111.955 16.4884 110.421 15.5181C108.863 14.5694 107.282 13.7001 105.685 12.8834L105.688 12.8845C105.053 12.5874 104.411 12.2679 103.776 11.9747C103.48 11.8299 103.159 11.7064 102.847 11.5568C102.69 11.4817 102.542 11.3802 102.378 11.3317C102.115 11.2542 101.86 11.1505 101.605 11.0464C100.373 10.5674 99.1487 10.1198 97.916 9.64077C96.8069 9.2271 95.7219 8.7917 94.6292 8.3829C94.2017 8.19892 93.7506 8.09462 93.2911 7.95895C91.3628 7.41845 89.4587 6.85626 87.547 6.32023C86.9645 6.17713 86.3901 6.00753 85.8155 5.83787C85.7335 5.81367 85.66 5.82083 85.5943 5.80143C85.3568 5.76018 85.1028 5.71361 84.8651 5.6723L79.0149 4.63481C78.3677 4.53035 77.7282 4.39927 77.0813 4.294L76.9663 4.26007C76.4505 4.19394 75.951 4.13307 75.4275 4.0931C74.4042 3.9922 73.3571 3.91312 72.3425 3.84364ZM105.751 12.9133C105.783 12.9317 105.819 12.9519 105.858 12.9633L105.75 12.9133L105.751 12.9133ZM46.2928 7.3942C46.2928 7.3942 46.278 7.38984 46.2697 7.41233C46.2774 7.4081 46.2852 7.402 46.2928 7.3942ZM105.688 12.8847L105.75 12.9136C105.73 12.9021 105.709 12.8925 105.688 12.8848L105.688 12.8847ZM122.984 26.1569C122.973 26.1464 122.963 26.1364 122.958 26.1206L122.984 26.1569ZM123.009 26.1927L122.984 26.1569C122.994 26.1646 123.002 26.1768 123.009 26.1927ZM14.3134 28.3406C14.3264 28.3236 14.3399 28.3084 14.3535 28.2952L14.3134 28.3406ZM14.2731 28.3865L14.3134 28.3406C14.2991 28.3583 14.2851 28.3756 14.2731 28.3865ZM6.18397 32.1508C6.17191 32.1617 6.1618 32.1806 6.15182 32.1991L6.18397 32.1508ZM6.15182 32.1991L6.11997 32.247C6.1316 32.235 6.14253 32.2186 6.1517 32.1995L6.15182 32.1991ZM3.27706 58.3754C3.28569 58.4068 3.30197 58.4116 3.29413 58.4382L3.27706 58.3754ZM46.2042 7.45378C46.2283 7.43203 46.2283 7.43203 46.2448 7.4369L46.2042 7.45378Z" fill="#F37060" stroke="#F37060" stroke-width="2.09261" mask="url(#path-1-inside-1_0_2781)"/>
</svg>
